<?xml version="1.0" encoding="UTF-8"?>
<svg id="Layer_2" data-name="Layer 2" xmlns="http://www.w3.org/2000/svg" xmlns:xlink="http://www.w3.org/1999/xlink" viewBox="0 0 1256.07 1768.38">
  <defs>
    <style>
      .cls-1 {
        fill: url(#linear-gradient-2);
      }

      .cls-2 {
        opacity: .7;
      }

      .cls-3 {
        fill: url(#linear-gradient-6);
      }

      .cls-4 {
        fill: url(#linear-gradient-5);
      }

      .cls-5 {
        fill: url(#linear-gradient-7);
      }

      .cls-6 {
        fill: url(#linear-gradient-9);
      }

      .cls-7 {
        fill: url(#linear-gradient-3);
      }

      .cls-8 {
        fill: url(#linear-gradient);
      }

      .cls-9 {
        fill: url(#linear-gradient-4);
      }

      .cls-10 {
        fill: url(#linear-gradient-8);
      }
    </style>
    <linearGradient id="linear-gradient" x1="711.51" y1="2709.48" x2="711.51" y2="879.67" gradientUnits="userSpaceOnUse">
      <stop offset="0" stop-color="#8e8e8e"/>
      <stop offset="1" stop-color="#fff"/>
    </linearGradient>
    <linearGradient id="linear-gradient-2" x1="915.11" y1="2709.48" x2="915.11" y2="879.67" xlink:href="#linear-gradient"/>
    <linearGradient id="linear-gradient-3" x1="881.59" y1="2709.48" x2="881.59" y2="879.67" xlink:href="#linear-gradient"/>
    <linearGradient id="linear-gradient-4" x1="628.03" y1="2709.48" x2="628.03" y2="879.67" xlink:href="#linear-gradient"/>
    <linearGradient id="linear-gradient-5" x1="628.03" y1="2043.44" x2="628.03" y2="881.32" xlink:href="#linear-gradient"/>
    <linearGradient id="linear-gradient-6" x1="477.75" y1="2709.48" x2="477.75" y2="879.67" xlink:href="#linear-gradient"/>
    <linearGradient id="linear-gradient-7" x1="255.13" y1="2709.48" x2="255.13" y2="879.67" xlink:href="#linear-gradient"/>
    <linearGradient id="linear-gradient-8" x1="628.67" y1="2709.07" x2="628.67" y2="879.26" xlink:href="#linear-gradient"/>
    <linearGradient id="linear-gradient-9" x1="628.03" y1="2709.48" x2="628.03" y2="879.67" xlink:href="#linear-gradient"/>
  </defs>
  <g id="_193" data-name="193">
    <g>
      <path class="cls-8" d="m712.13,1560.77c46.79,0,84.75-39.19,84.75-85.98s-37.95-86-84.75-86-85.98,39.22-85.98,86,37.92,85.98,85.98,85.98Z"/>
      <path class="cls-1" d="m914.49,1344.52c18.96,0,35.4-15.18,35.4-34.14,0-20.23-16.45-35.42-35.4-35.42s-34.16,15.18-34.16,35.42c0,18.96,15.18,34.14,34.16,34.14Z"/>
      <path class="cls-7" d="m881.59,1474.79c27.84,0,50.58-22.76,50.58-50.58s-22.74-50.61-50.58-50.61-50.59,22.77-50.59,50.61,22.77,50.58,50.59,50.58Z"/>
      <path class="cls-9" d="m805.72,590.78c-10.1-2.53-16.45-10.11-17.71-18.98V196.22h-159.33c-13.92,0-25.29-11.39-25.29-25.31s11.37-25.29,25.29-25.29h174.52c12.66,0,24.03-6.33,32.87-13.91,8.86-8.87,13.92-20.24,13.92-34.16,0-12.63-5.05-24.03-13.92-32.87-8.84-8.85-20.21-13.93-32.87-13.93h-349.05c-13.9,0-25.29,5.08-34.14,13.93-7.59,8.83-13.92,20.24-13.92,32.87s5.05,24.03,13.92,32.89v1.26c8.85,7.58,20.25,13.91,32.88,13.91h65.77c13.92,0,25.29,11.39,25.29,25.29s-11.37,25.31-25.29,25.31h-49.32v370.53c0,1.26,0,2.53-1.26,3.79v1.26c-1.27,8.87-7.61,16.45-16.45,18.98-117.61,37.95-218.78,112.55-289.6,209.94-69.55,96.11-111.3,212.46-111.3,340.2,0,159.33,64.5,303.5,169.46,407.22,104.98,104.95,249.15,169.46,408.5,169.46s303.5-64.51,407.21-169.46c104.96-103.71,169.46-247.88,169.46-407.22,0-127.74-40.47-244.09-110.04-340.2-70.82-97.38-171.99-171.99-289.6-209.94Zm-361.68,54.37c8.84-3.79,17.71-6.32,25.29-8.84,8.84-2.52,17.71-5.05,27.82-7.58,12.65-3.79,26.55,3.79,30.34,17.68,3.81,13.92-5.05,27.84-18.97,30.37-6.32,2.53-15.16,5.05-24.01,7.58-8.87,2.52-16.44,5.05-22.76,7.58-13.92,5.09-27.84-1.25-32.89-15.16-5.05-12.65,1.26-26.55,15.18-31.63ZM125.32,976.5c18.98-59.43,49.33-113.81,86.01-161.86,37.94-48.06,84.74-89.8,136.59-122.7,11.37-7.58,26.56-3.78,34.13,8.87,7.61,11.38,3.79,26.56-7.58,34.14-46.8,29.1-88.54,67.03-122.67,111.3-34.16,43.01-60.71,92.32-78.42,145.44-3.79,13.92-18.96,20.24-31.61,16.45-13.93-3.79-20.24-18.97-16.46-31.63Zm503.35,695.57c-292.15,0-529.91-230.17-541.27-518.5h1082.53c-12.63,288.34-250.39,518.5-541.25,518.5Z"/>
      <path class="cls-4" d="m1072.65,1584.94c-113.82,112.59-270.68,183.43-443.97,183.43s-330.15-70.84-443.99-183.43C70.84,1471.1,0,1314.26,0,1140.97c0-137.88,45.54-265.65,120.17-369.36,74.63-101.19,177.1-179.63,298.54-222.64V188.47c-12.67-5.05-24.04-11.37-34.17-21.5l-1.27-1.26c-16.45-17.72-27.82-41.75-27.82-68.31s11.37-50.59,29.09-68.31C402.24,11.39,426.28,0,454.11,0h349.12c26.56,0,50.59,11.39,68.31,29.08,17.72,17.72,29.09,41.75,29.09,68.31s-11.37,51.88-29.09,69.58c-8.85,10.13-20.25,17.71-32.91,21.5v360.5c120.19,43.01,223.91,121.45,297.26,222.64,75.89,103.72,120.17,231.49,120.17,369.36,0,173.29-70.83,330.12-183.42,443.97Z"/>
      <path class="cls-3" d="m461.74,691.94c6.32-2.53,13.9-5.05,22.76-7.58,8.84-2.53,17.69-5.05,24.01-7.58,13.92-2.52,22.79-16.45,18.97-30.37-3.79-13.89-17.69-21.47-30.34-17.68-10.12,2.52-18.98,5.05-27.82,7.58-7.58,2.53-16.45,5.05-25.29,8.84-13.92,5.08-20.24,18.97-15.18,31.63,5.05,13.91,18.97,20.25,32.89,15.16Z"/>
      <path class="cls-2" d="m461.74,691.94c6.32-2.53,13.9-5.05,22.76-7.58,8.84-2.53,17.69-5.05,24.01-7.58,13.92-2.52,22.79-16.45,18.97-30.37-3.79-13.89-17.69-21.47-30.34-17.68-10.12,2.52-18.98,5.05-27.82,7.58-7.58,2.53-16.45,5.05-25.29,8.84-13.92,5.08-20.24,18.97-15.18,31.63,5.05,13.91,18.97,20.25,32.89,15.16Z"/>
      <path class="cls-5" d="m141.78,1008.12c12.65,3.79,27.82-2.52,31.61-16.45,17.71-53.11,44.26-102.43,78.42-145.44,34.14-44.26,75.88-82.19,122.67-111.3,11.37-7.58,15.18-22.76,7.58-34.14-7.58-12.65-22.76-16.45-34.13-8.87-51.85,32.9-98.65,74.64-136.59,122.7-36.68,48.05-67.02,102.43-86.01,161.86-3.79,12.65,2.53,27.84,16.46,31.63Z"/>
      <path class="cls-2" d="m141.78,1008.12c12.65,3.79,27.82-2.52,31.61-16.45,17.71-53.11,44.26-102.43,78.42-145.44,34.14-44.26,75.88-82.19,122.67-111.3,11.37-7.58,15.18-22.76,7.58-34.14-7.58-12.65-22.76-16.45-34.13-8.87-51.85,32.9-98.65,74.64-136.59,122.7-36.68,48.05-67.02,102.43-86.01,161.86-3.79,12.65,2.53,27.84,16.46,31.63Z"/>
      <path class="cls-10" d="m628.68,1672.06c290.87,0,528.62-230.17,541.25-518.5H87.4c11.37,288.34,249.13,518.5,541.27,518.5Zm285.81-397.1c18.96,0,35.4,15.18,35.4,35.42,0,18.96-16.45,34.14-35.4,34.14s-34.16-15.18-34.16-34.14c0-20.23,15.18-35.42,34.16-35.42Zm-32.9,98.64c27.84,0,50.58,22.77,50.58,50.61s-22.74,50.58-50.58,50.58-50.59-22.76-50.59-50.58,22.77-50.61,50.59-50.61Zm-169.46,15.18c46.79,0,84.75,39.22,84.75,86s-37.95,85.98-84.75,85.98-85.98-39.19-85.98-85.98,37.92-86,85.98-86Z"/>
      <path class="cls-2" d="m628.68,1672.06c290.87,0,528.62-230.17,541.25-518.5H87.4c11.37,288.34,249.13,518.5,541.27,518.5Zm285.81-397.1c18.96,0,35.4,15.18,35.4,35.42,0,18.96-16.45,34.14-35.4,34.14s-34.16-15.18-34.16-34.14c0-20.23,15.18-35.42,34.16-35.42Zm-32.9,98.64c27.84,0,50.58,22.77,50.58,50.61s-22.74,50.58-50.58,50.58-50.59-22.76-50.59-50.58,22.77-50.61,50.59-50.61Zm-169.46,15.18c46.79,0,84.75,39.22,84.75,86s-37.95,85.98-84.75,85.98-85.98-39.19-85.98-85.98,37.92-86,85.98-86Z"/>
      <path class="cls-6" d="m838.59,549.04V188.62c12.66-3.79,24.05-11.37,32.9-21.5,17.71-17.69,29.08-41.74,29.08-69.56s-11.37-50.58-29.08-68.3C853.77,11.58,829.74.19,803.19.19h-349.05c-27.82,0-51.85,11.39-69.56,29.08-17.71,17.71-29.08,41.74-29.08,68.3s11.37,50.59,27.81,68.3l1.27,1.26c10.13,10.13,21.5,16.45,34.16,21.5v360.42c-121.41,43-223.86,121.42-298.47,222.59C45.66,875.33.13,1003.07.13,1140.92c0,173.25,70.82,330.05,184.65,443.88,113.82,112.57,270.63,183.39,443.9,183.39s330.08-70.82,443.88-183.39c112.56-113.82,183.38-270.63,183.38-443.88,0-137.85-44.27-265.59-120.15-369.29-73.34-101.17-177.03-179.59-297.2-222.59Zm197.3,999.09c-103.71,104.95-247.88,169.46-407.21,169.46s-303.52-64.51-408.5-169.46c-104.96-103.71-169.46-247.88-169.46-407.22,0-127.74,41.74-244.09,111.3-340.2,70.82-97.38,172-171.99,289.6-209.94,8.84-2.53,15.18-10.11,16.45-18.98v-1.26c1.26-1.26,1.26-2.53,1.26-3.79V196.22h49.32c13.92,0,25.29-11.39,25.29-25.31s-11.37-25.29-25.29-25.29h-65.77c-12.63,0-24.03-6.33-32.88-13.91v-1.26c-8.86-8.87-13.92-20.24-13.92-32.89s6.33-24.03,13.92-32.87c8.85-8.85,20.25-13.93,34.14-13.93h349.05c12.66,0,24.03,5.08,32.87,13.93,8.86,8.83,13.92,20.24,13.92,32.87,0,13.92-5.05,25.29-13.92,34.16-8.84,7.58-20.21,13.91-32.87,13.91h-174.52c-13.92,0-25.29,11.39-25.29,25.29s11.37,25.31,25.29,25.31h159.33v375.58c1.26,8.87,7.61,16.45,17.71,18.98,117.61,37.95,218.78,112.55,289.6,209.94,69.56,96.11,110.04,212.46,110.04,340.2,0,159.33-64.5,303.5-169.46,407.22Z"/>
      <path class="cls-2" d="m838.59,549.04V188.62c12.66-3.79,24.05-11.37,32.9-21.5,17.71-17.69,29.08-41.74,29.08-69.56s-11.37-50.58-29.08-68.3C853.77,11.58,829.74.19,803.19.19h-349.05c-27.82,0-51.85,11.39-69.56,29.08-17.71,17.71-29.08,41.74-29.08,68.3s11.37,50.59,27.81,68.3l1.27,1.26c10.13,10.13,21.5,16.45,34.16,21.5v360.42c-121.41,43-223.86,121.42-298.47,222.59C45.66,875.33.13,1003.07.13,1140.92c0,173.25,70.82,330.05,184.65,443.88,113.82,112.57,270.63,183.39,443.9,183.39s330.08-70.82,443.88-183.39c112.56-113.82,183.38-270.63,183.38-443.88,0-137.85-44.27-265.59-120.15-369.29-73.34-101.17-177.03-179.59-297.2-222.59Zm197.3,999.09c-103.71,104.95-247.88,169.46-407.21,169.46s-303.52-64.51-408.5-169.46c-104.96-103.71-169.46-247.88-169.46-407.22,0-127.74,41.74-244.09,111.3-340.2,70.82-97.38,172-171.99,289.6-209.94,8.84-2.53,15.18-10.11,16.45-18.98v-1.26c1.26-1.26,1.26-2.53,1.26-3.79V196.22h49.32c13.92,0,25.29-11.39,25.29-25.31s-11.37-25.29-25.29-25.29h-65.77c-12.63,0-24.03-6.33-32.88-13.91v-1.26c-8.86-8.87-13.92-20.24-13.92-32.89s6.33-24.03,13.92-32.87c8.85-8.85,20.25-13.93,34.14-13.93h349.05c12.66,0,24.03,5.08,32.87,13.93,8.86,8.83,13.92,20.24,13.92,32.87,0,13.92-5.05,25.29-13.92,34.16-8.84,7.58-20.21,13.91-32.87,13.91h-174.52c-13.92,0-25.29,11.39-25.29,25.29s11.37,25.31,25.29,25.31h159.33v375.58c1.26,8.87,7.61,16.45,17.71,18.98,117.61,37.95,218.78,112.55,289.6,209.94,69.56,96.11,110.04,212.46,110.04,340.2,0,159.33-64.5,303.5-169.46,407.22Z"/>
    </g>
  </g>
</svg>