<?xml version="1.0" standalone="no"?>
<!DOCTYPE svg PUBLIC "-//W3C//DTD SVG 20010904//EN"
 "http://www.w3.org/TR/2001/REC-SVG-20010904/DTD/svg10.dtd">
<svg version="1.0" xmlns="http://www.w3.org/2000/svg"
 width="700.000000pt" height="700.000000pt" viewBox="0 0 700.000000 700.000000"
 preserveAspectRatio="xMidYMid meet">
<metadata>
Created by potrace 1.14, written by Peter Selinger 2001-2017
</metadata>
<g transform="translate(0.000000,700.000000) scale(0.100000,-0.100000)"
fill="#000000" stroke="none">
<path d="M4029 6146 c-2 -2 -24 -7 -49 -10 -171 -23 -314 -191 -337 -396 -27
-243 60 -439 230 -519 76 -35 118 -44 222 -46 183 -5 330 79 403 228 38 79 53
150 53 258 0 236 -113 409 -303 464 -52 15 -210 30 -219 21z m176 -186 c105
-47 148 -138 148 -315 1 -189 -103 -310 -264 -308 -159 2 -254 124 -252 329 1
180 72 289 206 313 56 10 113 3 162 -19z"/>
<path d="M3820 5062 c-7 -3 -10 -164 -10 -502 l0 -498 -222 -137 c-123 -76
-243 -151 -267 -166 l-44 -29 -266 136 c-146 75 -324 167 -396 204 -136 71
-310 160 -635 328 l-195 100 -35 -17 c-19 -9 -138 -70 -265 -135 -310 -160
-511 -263 -750 -386 -408 -209 -550 -284 -555 -291 -9 -14 -4 -1999 6 -2008 5
-5 103 -57 219 -116 116 -59 291 -149 390 -200 99 -51 268 -137 375 -192 107
-55 283 -146 390 -201 l195 -100 130 67 c72 37 231 119 355 183 285 146 563
289 755 388 83 43 196 101 253 130 56 28 102 55 103 58 1 4 2 430 4 947 1 517
3 943 4 946 1 6 130 88 209 134 9 6 131 81 271 169 216 134 257 156 275 148
12 -5 125 -69 251 -143 127 -73 240 -137 252 -143 13 -6 23 -14 23 -18 0 -5 6
-8 13 -8 6 0 64 -31 127 -69 63 -38 118 -67 122 -65 3 2 25 36 47 74 l40 70
-37 23 c-20 13 -57 34 -82 48 -25 13 -46 27 -48 32 -2 4 -8 7 -13 7 -5 0 -38
18 -74 40 -36 22 -67 40 -69 40 -2 0 -68 38 -147 84 l-144 83 0 492 c0 429 -2
491 -15 492 -81 4 -153 3 -157 -4 -3 -4 -5 -204 -5 -443 l0 -435 -43 26 c-54
31 -66 31 -115 0 -22 -14 -43 -25 -47 -25 -5 0 -8 198 -8 440 0 433 0 440 -20
441 -101 4 -136 4 -145 1z m-1375 -1223 l630 -317 1 -845 0 -846 -653 -329
-654 -329 -658 330 -657 330 1 845 c0 554 3 847 10 849 6 2 300 149 655 327
584 294 647 323 669 312 14 -6 309 -153 656 -327z"/>
<path d="M1789 3807 c-2 -142 2 -222 9 -225 5 -1 162 -79 351 -172 188 -94
363 -179 387 -191 l45 -20 112 72 c62 40 120 78 130 84 16 11 -21 32 -290 165
-169 84 -406 202 -525 261 l-218 108 -1 -82z"/>
<path d="M714 2676 c0 -461 3 -663 10 -659 6 3 68 42 139 86 l127 80 0 493 0
493 -22 12 c-12 7 -73 45 -135 85 -62 41 -114 74 -116 74 -2 0 -3 -299 -3
-664z"/>
<path d="M2530 2150 c-19 -11 -141 -72 -270 -136 -516 -257 -470 -231 -471
-261 -2 -99 -1 -264 2 -267 3 -3 1036 508 1045 517 3 3 -260 167 -267 167 -2
0 -20 -9 -39 -20z"/>
<path d="M5321 3804 c-148 -39 -258 -151 -297 -304 -21 -82 -24 -228 -7 -305
49 -222 205 -346 438 -348 237 -1 397 120 448 339 19 80 15 251 -8 323 -47
151 -147 250 -295 294 -61 18 -212 19 -279 1z m257 -173 c44 -22 98 -80 114
-120 17 -45 20 -63 25 -145 15 -228 -88 -362 -272 -355 -116 5 -198 76 -231
203 -15 57 -12 213 5 267 25 79 99 152 172 169 53 12 144 3 187 -19z"/>
<path d="M6070 3333 l0 -473 95 0 95 0 2 207 3 207 182 0 183 1 1 -45 c0 -25
0 -118 0 -208 l0 -163 97 3 96 3 1 460 c0 253 -1 465 -2 470 -2 6 -42 10 -96
10 l-92 0 -2 -140 c-1 -77 -2 -160 -2 -186 l-1 -45 -185 -1 -185 -1 0 187 0
186 -95 0 -95 0 0 -472z"/>
</g>
</svg>
